<svg class="svg-icon" style="width: 1em;height: 1em;vertical-align: middle;fill: currentColor;overflow: hidden;" viewBox="0 0 1024 1024" version="1.1" xmlns="http://www.w3.org/2000/svg"><path d="M923.136 969.557333H193.024v-909.653333h521.386667l208.725333 207.701333z" fill="#7CCDFF" /><path d="M912.896 253.952l2.56 671.914667c0 15.530667-12.458667 27.989333-27.989333 27.989333H237.909333c-15.530667 0-27.989333-12.458667-27.989333-27.989333V96.938667c0-15.530667 12.458667-27.989333 27.989333-27.989334l493.397334-1.024-38.912-39.936H239.274667c-36.352 0-65.706667 29.354667-65.706667 65.706667v835.584c0 36.352 29.354667 65.706667 65.706667 65.706667h646.826666c36.352 0 65.706667-29.354667 65.706667-65.706667V293.888l-38.912-39.936z" fill="#4191FB" /><path d="M692.394667 222.72c0 39.424 31.914667 71.338667 71.338666 71.338667h188.245334L692.394667 27.989333v194.730667z" fill="#C7E2FF" /><path d="M557.568 482.304H158.72c-50.346667 0-91.136-40.789333-91.136-91.136v-60.245333c0-50.346667 40.789333-91.136 91.136-91.136h398.848c50.346667 0 91.136 40.789333 91.136 91.136v60.245333c0 50.346667-40.789333 91.136-91.136 91.136z" fill="#4191FB" /><path d="M146.944 443.221333v-155.818666h80.213333c14.848 0 26.282667 1.194667 34.133334 3.754666s14.165333 7.338667 18.944 14.165334 7.168 15.36 7.168 25.258666c0 8.704-1.877333 16.042667-5.461334 22.357334-3.754667 6.314667-8.704 11.434667-15.189333 15.189333-4.096 2.56-9.728 4.608-16.896 6.144 5.802667 1.877333 9.898667 3.754667 12.458667 5.802667 1.706667 1.194667 4.266667 3.925333 7.68 8.192s5.632 7.338667 6.656 9.728l23.381333 45.056h-54.442667l-25.770666-47.616c-3.242667-6.144-6.144-10.24-8.704-11.946667-3.413333-2.389333-7.338667-3.584-11.776-3.584h-4.266667v63.146667H146.944v0.170666z m48.298667-92.501333h20.309333c2.218667 0 6.485333-0.682667 12.8-2.048 3.242667-0.682667 5.802667-2.218667 7.850667-4.949333 2.048-2.56 3.072-5.632 3.072-9.045334 0-4.949333-1.536-8.874667-4.778667-11.605333-3.242667-2.730667-9.216-4.096-17.92-4.096h-21.162667v31.744h-0.170666zM302.592 287.573333H448.853333V325.973333h-49.152v117.248H351.573333V325.973333h-49.152v-38.4h0.170667zM470.869333 287.573333h118.954667v33.450667h-70.656V348.16h60.416v31.402667h-60.416v63.658666h-48.298667v-155.648z" fill="#FFFFFF" /><path d="M345.941333 801.109333h439.978667c15.701333 0 28.330667 12.8 28.330667 28.330667v5.290667c0 15.701333-12.8 28.330667-28.330667 28.330666H345.941333c-15.701333 0-28.330667-12.8-28.330666-28.330666V829.44c0-15.530667 12.629333-28.330667 28.330666-28.330667z" fill="#4191FB" /><path d="M526.336 670.549333h259.584c15.701333 0 28.330667 12.8 28.330667 28.330667v5.290667c0 15.701333-12.8 28.330667-28.330667 28.330666H526.336c-15.701333 0-28.330667-12.8-28.330667-28.330666v-5.290667c0-15.530667 12.8-28.330667 28.330667-28.330667z" fill="#4191FB" /><path d="M427.690667 732.672v-7.850667c16.213333-2.218667 18.261333-4.949333 14.677333-15.530666-3.242667-10.922667-8.192-24.746667-13.482667-42.325334h-53.76c-3.925333 12.458667-7.68 23.381333-11.264 34.816-5.461333 18.090667-2.048 20.309333 18.432 23.04v7.850667h-57.514666v-7.850667c15.701333-2.218667 19.626667-4.096 28.330666-29.184l51.541334-146.261333 8.021333-1.706667c15.701333 47.616 32.938667 100.181333 48.64 148.48 8.021333 24.234667 10.24 26.453333 27.818667 28.672v7.850667h-61.44z m-24.917334-148.48c-8.021333 23.893333-16.384 49.322667-23.893333 71.338667h46.592L402.773333 584.192z" fill="#4191FB" /></svg>