<?xml version="1.0" encoding="UTF-8" standalone="no"?>

<svg xmlns="http://www.w3.org/2000/svg" xmlns:xl="http://www.w3.org/1999/xlink" version="1.1"
  viewBox="0 0 128 128" width="128" height="128">
  <defs>
    <style>
      .color-fill {
        fill: white;
      }

      .color-stroke {
        stroke: white;
        fill: none;
        stroke-linecap: round;
        stroke-linejoin: round;
      }
    </style>
  </defs>
  <circle cx="64" cy="64" r="64" fill="rgb(41, 79, 141)"/>
  <g id="musios-logo" transform="scale(1.1) translate(527, -262) ">
    <g id="mouth">
      <path
        class="color-stroke"
        d="M -482.99903 353.65045 C -483.30754 358.1767 -479.6264 361.3792 -474.777 361.80347 C -469.92757 362.22774 -465.74624 359.7131 -465.43774 356.18686 "
        stroke-width="3" />
    </g>

    <g id="m">
      <path id="m-top-left"
        class="color-stroke"
        d="M -497.29184 298.03605 C -497.29184 288.86175 -491.08384 281.4245 -483.4259 281.4245 C -475.7679 281.4245 -469.5599 288.86175 -469.5599 298.03605 "
        stroke-width="4" />

      <path id="m-top-right"
        class="color-stroke"
        d="M  -468.9976 298.03605 C -468.9976 289.86175 -462.7896 282.4245 -455.1316 282.4245 C -447.47367 282.4245 -441.26566 289.86175 -441.26566 298.03605 "
        stroke-width="5" />

      <line id="m-line-left" 
        class="color-stroke"
        x1="-497.29184" y1="298.19626" x2="-496.52055" y2="323.4917" 
        stroke-width="4" />

      <line id="m-line-right" 
        class="color-stroke"
        x1="-441.26566" y1="298.9571" x2="-440.26566" y2="337.3563"
        stroke-width="5" />
    </g>

    <path id="hair"
      class="color-fill"
      d="M -422.4467 324.0907 C -422.3762 329.11055 -424.665 333.91673 -428.1093 337.48668 C -428.81265 338.36104 -430.7266 339.99455 -431.07243 339.7517 C -431.5179 339.4389 -429.93815 338.00687 -429.14636 337.2453 C -425.6521 333.61686 -423.60127 328.45854 -424.3002 323.40704 C -425.20153 318.80014 -428.9576 315.47173 -432.64373 312.9189 C -434.97443 311.32143 -437.46076 309.94637 -440.0735 308.86746 L -440.0735 297.70884 L -438.8306 297.7129 C -437.835 302.29808 -433.69993 305.8828 -430.6091 309.1143 C -428.4515 311.42276 -425.909 313.4628 -424.45674 316.3308 C -423.1538 318.6981 -422.4352 321.38485 -422.4467 324.0907 Z" />

    <g id="eyes">
      <path id="eye-left"
        class="color-fill"
        d="M -507.07745 333.29995 C -505.59307 335.0309 -503.1859 335.4631 -501.07215 335.9241 C -496.56764 336.6268 -491.8193 336.3858 -487.57386 334.71106 C -486.36536 334.1445 -484.5022 333.1085 -485.1782 331.4813 C -485.92174 329.7794 -487.95636 329.25388 -489.57216 328.7414 C -493.5458 327.72323 -497.7467 327.82587 -501.73497 328.5854 C -503.7306 329.09484 -506.09364 329.62915 -507.24277 331.50922 C -507.51596 332.08148 -507.4846 332.7894 -507.07745 333.29995 Z M -505.2471 326.2832 C -501.1177 323.43578 -495.6212 322.9873 -490.8487 324.41315 C -487.61983 325.4212 -484.2702 327.81255 -483.8025 331.40503 C -483.3571 334.24478 -485.241 336.8139 -487.5268 338.23455 C -491.37974 340.81306 -496.3745 341.17348 -500.8364 340.15596 C -504.19565 339.32234 -507.734 337.19035 -508.6341 333.60893 C -509.2947 331.00512 -507.99106 328.31036 -505.9131 326.78236 C -505.69684 326.60844 -505.47436 326.4422 -505.2471 326.2832 Z" />

      <path id="eye-right"
        class="color-fill"
        d="M -461.13956 343.34704 C -459.65517 345.078 -457.248 345.5102 -455.13425 345.9712 C -450.62974 346.67388 -445.8814 346.4329 -441.63597 344.75814 C -440.42746 344.1916 -438.56433 343.15558 -439.2403 341.5284 C -439.98385 339.8265 -442.01846 339.30097 -443.63426 338.7885 C -447.6079 337.7703 -451.8088 337.87296 -455.7971 338.63247 C -457.7927 339.14192 -460.15574 339.67624 -461.3049 341.5563 C -461.57807 342.12857 -461.5467 342.83647 -461.13956 343.34704 Z M -459.3092 336.33028 C -455.1798 333.48286 -449.6833 333.0344 -444.9108 334.46023 C -441.68193 335.4683 -438.3323 337.85964 -437.8646 341.45212 C -437.4192 344.29186 -439.3031 346.861 -441.5889 348.28164 C -445.44185 350.86015 -450.4366 351.22056 -454.8985 350.20304 C -458.25775 349.36942 -461.7961 347.23744 -462.6962 343.656 C -463.3568 341.0522 -462.05317 338.35745 -459.9752 336.82945 C -459.75894 336.65553 -459.53646 336.48927 -459.3092 336.33028 Z" />

      <path id="eye-right-fill" 
        class="color-stroke"
        d="M -438.38 332.499 L -439.37 337.31298 L -438.37 342.12693 Z" 
        stroke-width="1" />
    </g>
  </g>
</svg>